<svg width="2000" height="1000" xmlns="http://www.w3.org/2000/svg">
    <path fill="#fbf2f2" d="M0 0h2000v1000H0z" />
    <path
        d="M0 500h0c17.796 47.86 35.592 95.72 60 123s55.43 33.978 79-31c23.57-64.978 39.69-201.634 60-240 20.31-38.366 44.809 21.557 70 47 25.191 25.443 51.075 16.406 76 67 24.925 50.594 48.891 160.82 72 141 23.109-19.82 45.36-169.688 70-222 24.64-52.312 51.665-7.067 73 38s36.978 89.957 58 112c21.022 22.043 47.422 21.24 73-36 25.578-57.24 50.332-170.915 75-140 24.668 30.915 49.249 206.42 70 256 20.751 49.58 37.673-26.765 60-55 22.327-28.235 50.058-8.36 76-20s50.096-54.798 71-56c20.904-1.202 38.558 39.55 58 51 19.442 11.45 40.67-6.404 64 16s48.76 85.065 74 76c25.24-9.065 50.287-89.857 76-98s52.091 56.361 72 70c19.909 13.639 33.347-23.588 56-51s54.52-45.008 80-73c25.48-27.992 44.574-66.378 66-43 21.426 23.378 45.185 108.52 67 132 21.815 23.48 41.685-14.703 65-51 23.315-36.297 50.074-70.708 73-103 22.926-32.292 42.019-62.463 64-11s46.852 184.56 71 215c24.148 30.44 47.574-41.78 111-114"
        fill="none" stroke="#efc7c7" strokeWidth="20" stroke-linecap="round" />
</svg>